<?xml version="1.0" standalone="no"?>
<!DOCTYPE svg PUBLIC "-//W3C//DTD SVG 20010904//EN"
 "http://www.w3.org/TR/2001/REC-SVG-20010904/DTD/svg10.dtd">
<svg version="1.0" xmlns="http://www.w3.org/2000/svg"
 width="1000.000000pt" height="1000.000000pt" viewBox="0 0 1000.000000 1000.000000"
 preserveAspectRatio="xMidYMid meet">
<metadata>
Created by potrace 1.11, written by Peter Selinger 2001-2013
</metadata>
<g transform="translate(0.000000,1000.000000) scale(0.100000,-0.100000)"
fill="#000000" stroke="none">
<path d="M4739 9995 c-2 -1 -53 -6 -114 -9 -60 -4 -119 -9 -130 -11 -11 -2
-47 -7 -80 -10 -33 -3 -69 -7 -80 -9 -11 -2 -42 -7 -70 -10 -59 -8 -109 -16
-139 -22 -11 -2 -37 -7 -56 -10 -484 -88 -1006 -275 -1465 -524 -978 -531
-1785 -1423 -2211 -2442 -14 -35 -32 -76 -39 -93 -88 -205 -213 -629 -258
-875 -3 -14 -8 -36 -11 -50 -11 -46 -47 -298 -60 -415 -28 -247 -28 -818 -1
-1020 2 -16 9 -73 15 -125 13 -115 38 -268 44 -279 2 -3 7 -26 10 -51 9 -70
12 -83 61 -275 196 -775 585 -1504 1120 -2099 145 -162 336 -348 470 -461 33
-27 69 -58 80 -68 108 -99 445 -333 655 -455 204 -119 374 -204 600 -300 99
-42 115 -48 285 -108 200 -70 499 -150 670 -180 17 -2 37 -7 45 -9 8 -2 31 -7
50 -10 19 -3 46 -7 60 -10 14 -3 48 -7 75 -11 28 -3 59 -8 70 -10 11 -2 47 -7
80 -10 33 -3 71 -7 85 -10 153 -25 842 -25 1002 1 13 2 50 6 83 9 33 4 71 8
85 10 14 3 46 7 71 10 25 4 95 15 155 27 60 11 123 23 139 26 61 10 373 92
470 123 397 127 775 300 1115 511 114 70 358 237 386 263 7 6 24 20 40 31 225
161 597 519 804 775 25 30 47 57 50 60 21 18 222 298 292 405 143 220 304 517
383 705 15 36 35 83 45 105 10 22 21 49 25 60 31 81 46 122 78 210 62 173 160
534 182 665 3 19 8 46 10 60 11 52 15 75 20 115 3 22 10 67 15 100 5 33 12 85
15 115 4 30 8 69 10 85 27 194 27 777 1 1005 -3 19 -7 58 -10 85 -12 102 -29
219 -50 330 -2 11 -6 36 -10 55 -12 66 -15 79 -55 242 -66 265 -146 502 -263
778 -39 92 -165 349 -205 420 -345 602 -714 1045 -1213 1456 -324 268 -757
537 -1115 694 -27 12 -63 27 -80 35 -228 100 -654 241 -825 271 -14 3 -33 7
-42 10 -10 3 -30 7 -44 10 -14 3 -54 11 -88 19 -33 8 -77 16 -96 19 -19 2 -80
11 -135 20 -112 17 -151 22 -245 31 -36 3 -83 8 -105 11 -46 6 -651 14 -656 9z"/>
</g>
</svg>
